<?xml version="1.0" encoding="UTF-8"?><svg id="uuid-a15d08de-1a95-4910-be94-ebaaaef6ce92" xmlns="http://www.w3.org/2000/svg" viewBox="0 0 250 134.87"><defs><style>.uuid-3cc04a50-5006-49ad-9f00-da739706bf24{opacity:.83;}.uuid-6047f800-23ef-4f39-be7d-ddc7a839fad2{fill:#acacad;}.uuid-6047f800-23ef-4f39-be7d-ddc7a839fad2,.uuid-b48b8dc6-598f-4007-82de-2e38fc811135,.uuid-9c7f285b-dcb4-4c2f-9191-d8d28d3197ae,.uuid-6858bf00-53db-49db-b2dd-5a45d8920516,.uuid-1295b0d1-b404-4f8a-a7f6-9e041db8ebdc{stroke-width:0px;}.uuid-b48b8dc6-598f-4007-82de-2e38fc811135{fill:#efefef;}.uuid-b48b8dc6-598f-4007-82de-2e38fc811135,.uuid-6858bf00-53db-49db-b2dd-5a45d8920516,.uuid-1295b0d1-b404-4f8a-a7f6-9e041db8ebdc{fill-rule:evenodd;}.uuid-9c7f285b-dcb4-4c2f-9191-d8d28d3197ae{fill:#a0a0a0;}.uuid-6858bf00-53db-49db-b2dd-5a45d8920516{fill:#fff;}.uuid-1295b0d1-b404-4f8a-a7f6-9e041db8ebdc{fill:#e2e2e2;}</style></defs><g id="uuid-638b3d79-96da-4731-8f93-e5b7901ca065"><g class="uuid-3cc04a50-5006-49ad-9f00-da739706bf24"><path class="uuid-1295b0d1-b404-4f8a-a7f6-9e041db8ebdc" d="m55.03,118.37h102.7c.58,0,1.15-.07,1.69-.2.55.13,1.11.2,1.69.2h58.69c4.36,0,7.9-3.81,7.9-8.51s-3.54-8.51-7.9-8.51h-6.77c-4.36,0-7.9-3.81-7.9-8.51s3.54-8.51,7.9-8.51h21.44c4.36,0,7.9-3.81,7.9-8.51s-3.54-8.51-7.9-8.51h-24.83c4.36,0,7.9-3.81,7.9-8.51s-3.54-8.51-7.9-8.51h-72.23c4.36,0,7.9-3.81,7.9-8.51s-3.54-8.51-7.9-8.51h-64.33c-4.36,0-7.9,3.81-7.9,8.51s3.54,8.51,7.9,8.51H27.94c-4.36,0-7.9,3.81-7.9,8.51s3.54,8.51,7.9,8.51h28.22c4.36,0,7.9,3.81,7.9,8.51s-3.54,8.51-7.9,8.51H11.01c-4.36,0-7.9,3.81-7.9,8.51s3.54,8.51,7.9,8.51h44.02c-4.36,0-7.9,3.81-7.9,8.51s3.54,8.51,7.9,8.51Zm183.96,0c4.36,0,7.9-3.81,7.9-8.51s-3.54-8.51-7.9-8.51-7.9,3.81-7.9,8.51,3.54,8.51,7.9,8.51Z"/></g><path class="uuid-6858bf00-53db-49db-b2dd-5a45d8920516" d="m87.76,125.67c-13.71,0-24.83-11.7-24.83-26.14s11.12-26.14,24.83-26.14c.58,0,1.16.02,1.73.06-.4-2.39-.61-4.85-.61-7.36,0-22.83,17.18-41.34,38.37-41.34,16.92,0,31.28,11.8,36.38,28.17,1.21-.14,2.44-.21,3.68-.21,19.01,0,34.42,16.33,34.42,36.47s-13.91,34.93-31.6,36.45v.03h-82.39Zm13.54,0h-7.86,7.86Z"/><path class="uuid-6047f800-23ef-4f39-be7d-ddc7a839fad2" d="m170.14,126.92h-82.39c-14.38,0-26.08-12.29-26.08-27.39s11.7-27.39,26.08-27.39c.09,0,.18,0,.28,0-.26-1.99-.4-4.02-.4-6.05,0-23.48,17.77-42.59,39.62-42.59,16.74,0,31.6,11.24,37.26,28.08.93-.08,1.87-.11,2.8-.11,19.67,0,35.67,16.92,35.67,37.72,0,19.15-13.79,35.42-31.6,37.57v.12l-1.25.03Zm0-1.28h0,0Zm-82.39-51c-13,0-23.58,11.17-23.58,24.89s10.58,24.89,23.58,24.89l82.28-.02c17.08-1.47,30.46-16.93,30.46-35.2,0-19.42-14.88-35.22-33.17-35.22-1.19,0-2.38.07-3.54.2l-1.03.12-.31-.99c-5.09-16.32-19.23-27.29-35.19-27.29-20.47,0-37.12,17.98-37.12,40.09,0,2.4.2,4.81.59,7.15l.26,1.57-1.59-.12c-.54-.04-1.09-.06-1.64-.06Z"/><path class="uuid-b48b8dc6-598f-4007-82de-2e38fc811135" d="m115.53,33.69c0,39.18,32.75,71.46,74.93,75.82-5.29,7-13.45,11.75-22.74,12.5v.02h-75.73c-9.19,0-24.54-4.17-24.54-22.43s11.93-22.43,24.54-22.43c.54,0,1.07.02,1.59.05-.37-2.05-.43-4.16-.56-6.31-.86-14.54,5.03-32.87,22.54-38.84-.01.54-.02,1.09-.02,1.63Zm11.85,61.29c-3.43,0-6.21,2.96-6.21,6.61s2.78,6.61,6.21,6.61,6.21-2.96,6.21-6.61-2.78-6.61-6.21-6.61Z"/><path class="uuid-6047f800-23ef-4f39-be7d-ddc7a839fad2" d="m127.82,109.9c-4.11,0-7.46-3.56-7.46-7.94s3.35-7.94,7.46-7.94,7.46,3.56,7.46,7.94-3.35,7.94-7.46,7.94Zm0-13.37c-2.73,0-4.96,2.44-4.96,5.44s2.22,5.44,4.96,5.44,4.96-2.44,4.96-5.44-2.22-5.44-4.96-5.44Z"/><path class="uuid-6047f800-23ef-4f39-be7d-ddc7a839fad2" d="m110.33,89.23c-.35,0-.71-.15-.96-.44-.45-.53-.38-1.32.15-1.76l6.74-5.7-6.72-5.41c-.54-.43-.62-1.22-.19-1.76.43-.54,1.22-.62,1.76-.19l7.9,6.36c.29.23.46.59.47.96s-.16.73-.44.97l-7.9,6.68c-.23.2-.52.29-.81.29Z"/><path class="uuid-6047f800-23ef-4f39-be7d-ddc7a839fad2" d="m145.31,89.23c-.29,0-.57-.1-.81-.29l-7.9-6.68c-.28-.24-.45-.6-.44-.97s.18-.73.47-.96l7.9-6.36c.54-.43,1.32-.35,1.76.19.43.54.35,1.33-.19,1.76l-6.72,5.41,6.74,5.7c.53.45.59,1.23.15,1.76-.25.29-.6.44-.96.44Z"/><path class="uuid-9c7f285b-dcb4-4c2f-9191-d8d28d3197ae" d="m153.71,54.33c-.56,0-1.06-.38-1.21-.94-1.91-7.45-7.39-13.3-14.3-15.27-.66-.19-1.05-.88-.86-1.54s.88-1.04,1.54-.86c7.76,2.21,13.9,8.75,16.04,17.05.17.67-.23,1.35-.9,1.52-.1.03-.21.04-.31.04Z"/><path class="uuid-9c7f285b-dcb4-4c2f-9191-d8d28d3197ae" d="m162.24,17.25c-2.42,0-4.39-2.08-4.39-4.65s1.97-4.65,4.39-4.65,4.39,2.08,4.39,4.65-1.97,4.65-4.39,4.65Zm0-7.29c-1.32,0-2.39,1.19-2.39,2.65s1.07,2.65,2.39,2.65,2.39-1.19,2.39-2.65-1.07-2.65-2.39-2.65Z"/><path class="uuid-9c7f285b-dcb4-4c2f-9191-d8d28d3197ae" d="m197.23,35.7c1.87,0,3.39-1.63,3.39-3.65s-1.52-3.65-3.39-3.65-3.39,1.63-3.39,3.65,1.52,3.65,3.39,3.65Z"/><path class="uuid-9c7f285b-dcb4-4c2f-9191-d8d28d3197ae" d="m180.43,37.09c-.34,0-.67-.13-.92-.4l-3.73-4.02-3.73,4.02c-.47.51-1.26.54-1.77.07-.27-.25-.4-.58-.4-.92,0-.3.11-.61.33-.85l3.86-4.15-4-4.31c-.47-.51-.44-1.3.07-1.77.51-.47,1.3-.44,1.77.07l3.87,4.17,3.87-4.17c.47-.51,1.26-.54,1.77-.07.27.25.4.58.4.92,0,.3-.11.61-.33.85l-4,4.31,3.86,4.15c.47.51.44,1.3-.07,1.77-.24.22-.55.33-.85.33Z"/><path class="uuid-9c7f285b-dcb4-4c2f-9191-d8d28d3197ae" d="m71.28,55.91c-.34,0-.67-.13-.92-.4l-2.47-2.66-2.47,2.66c-.47.5-1.26.54-1.77.07-.27-.25-.4-.58-.4-.92,0-.3.11-.61.33-.85l2.6-2.8-2.6-2.8c-.47-.51-.44-1.3.07-1.77.51-.47,1.3-.44,1.77.07l2.47,2.66,2.47-2.66c.47-.5,1.26-.54,1.77-.07.27.25.4.58.4.92,0,.3-.11.61-.33.85l-2.6,2.8,2.6,2.8c.47.51.44,1.3-.07,1.77-.24.22-.55.33-.85.33Z"/><path class="uuid-9c7f285b-dcb4-4c2f-9191-d8d28d3197ae" d="m79.86,39.35c1.87,0,3.39-1.63,3.39-3.65s-1.52-3.65-3.39-3.65-3.39,1.63-3.39,3.65,1.52,3.65,3.39,3.65Z"/></g></svg>